name analog
datacolumns 19
datarows 79
range 0.3820000000000001 0.42100000000000015
endheader
time	ground_force_vx	ground_force_vy	ground_force_vz	ground_force_px	ground_force_py	ground_force_pz	l_ground_force_vx	l_ground_force_vy	l_ground_force_vz	l_ground_force_px	l_ground_force_py	l_ground_force_pz	ground_torque_x	ground_torque_y	ground_torque_z	l_ground_torque_x	l_ground_torque_y	l_ground_torque_z
0.3820000000000001	-0.0	-0.0	-0.0	5.70947265625	16.456838607788086	-781.587158203125	-0.0	-0.0	-0.0	-0.0	-0.0	-0.0	-0.0	-0.0	-0.0	-0.0	-0.0	-0.0
0.3825000000000001	-0.0	-0.0	-0.0	5.44835901260376	16.29132652282715	-786.126953125	-0.0	-0.0	-0.0	-0.0	-0.0	-0.0	-0.0	-0.0	-0.0	-0.0	-0.0	-0.0
0.3830000000000001	-0.0	-0.0	-0.0	5.154484748840332	16.380287170410156	-790.9260864257812	-0.0	-0.0	-0.0	-0.0	-0.0	-0.0	-0.0	-0.0	-0.0	-0.0	-0.0	-0.0
0.3835000000000001	-0.0	-0.0	-0.0	4.447224140167236	15.858566284179688	-799.0882568359375	-0.0	-0.0	-0.0	-0.0	-0.0	-0.0	-0.0	-0.0	-0.0	-0.0	-0.0	-0.0
0.3840000000000001	-0.0	-0.0	-0.0	2.312758445739746	15.069746971130373	-798.6727294921875	-0.0	-0.0	-0.0	-0.0	-0.0	-0.0	-0.0	-0.0	-0.0	-0.0	-0.0	-0.0
0.3845000000000001	-0.0	-0.0	-0.0	0.020376518368721	14.164947509765623	-802.3172607421875	-0.0	-0.0	-0.0	-0.0	-0.0	-0.0	-0.0	-0.0	-0.0	-0.0	-0.0	-0.0
0.3850000000000001	-0.0	-0.0	-0.0	-2.62153697013855	12.862142562866213	-802.7508544921875	-0.0	-0.0	-0.0	-0.0	-0.0	-0.0	-0.0	-0.0	-0.0	-0.0	-0.0	-0.0
0.3855000000000001	-0.0	-0.0	-0.0	-4.529001235961914	11.991171836853027	-805.4939575195312	-0.0	-0.0	-0.0	-0.0	-0.0	-0.0	-0.0	-0.0	-0.0	-0.0	-0.0	-0.0
0.3860000000000001	-0.0	-0.0	-0.0	-5.489118099212647	11.080100059509276	-808.5884399414062	-0.0	-0.0	-0.0	-0.0	-0.0	-0.0	-0.0	-0.0	-0.0	-0.0	-0.0	-0.0
0.3865000000000001	-0.0	-0.0	-0.0	-7.129796981811523	9.93570041656494	-810.4921875	-0.0	-0.0	-0.0	-0.0	-0.0	-0.0	-0.0	-0.0	-0.0	-0.0	-0.0	-0.0
0.3870000000000001	-0.0	-0.0	-0.0	-8.303679466247559	8.913040161132812	-813.9391479492188	-0.0	-0.0	-0.0	-0.0	-0.0	-0.0	-0.0	-0.0	-0.0	-0.0	-0.0	-0.0
0.3875000000000001	-0.0	-0.0	-0.0	-9.381458282470703	8.47455883026123	-815.8741455078125	-0.0	-0.0	-0.0	-0.0	-0.0	-0.0	-0.0	-0.0	-0.0	-0.0	-0.0	-0.0
0.3880000000000001	-0.0	-0.0	-0.0	-10.206204414367676	7.590553760528564	-814.7001342773438	-0.0	-0.0	-0.0	-0.0	-0.0	-0.0	-0.0	-0.0	-0.0	-0.0	-0.0	-0.0
0.3885000000000001	-0.0	-0.0	-0.0	-10.37037467956543	6.988731861114502	-813.8424682617188	-0.0	-0.0	-0.0	-0.0	-0.0	-0.0	-0.0	-0.0	-0.0	-0.0	-0.0	-0.0
0.3890000000000001	-0.0	-0.0	-0.0	-10.534214973449709	7.159903526306152	-812.3138427734375	-0.0	-0.0	-0.0	-0.0	-0.0	-0.0	-0.0	-0.0	-0.0	-0.0	-0.0	-0.0
0.3895000000000001	-0.0	-0.0	-0.0	-10.519410133361816	6.684780120849609	-810.4891357421875	-0.0	-0.0	-0.0	-0.0	-0.0	-0.0	-0.0	-0.0	-0.0	-0.0	-0.0	-0.0
0.3900000000000001	-0.0	-0.0	-0.0	-10.266716003417969	6.974673271179199	-806.722412109375	-0.0	-0.0	-0.0	-0.0	-0.0	-0.0	-0.0	-0.0	-0.0	-0.0	-0.0	-0.0
0.3905000000000001	-0.0	-0.0	-0.0	-9.01783275604248	7.464259147644043	-806.4296875	-0.0	-0.0	-0.0	-0.0	-0.0	-0.0	-0.0	-0.0	-0.0	-0.0	-0.0	-0.0
0.3910000000000001	-0.0	-0.0	-0.0	-8.467369079589844	7.746722221374512	-804.2510986328125	-0.0	-0.0	-0.0	-0.0	-0.0	-0.0	-0.0	-0.0	-0.0	-0.0	-0.0	-0.0
0.3915000000000001	-0.0	-0.0	-0.0	-7.404472351074219	7.878718852996826	-803.514892578125	-0.0	-0.0	-0.0	-0.0	-0.0	-0.0	-0.0	-0.0	-0.0	-0.0	-0.0	-0.0
0.3920000000000001	-0.0	-0.0	-0.0	-5.659109115600586	8.327939987182617	-803.0081787109375	-0.0	-0.0	-0.0	-0.0	-0.0	-0.0	-0.0	-0.0	-0.0	-0.0	-0.0	-0.0
0.3925000000000001	-0.0	-0.0	-0.0	-4.903682231903076	9.382211685180664	-802.5801391601562	-0.0	-0.0	-0.0	-0.0	-0.0	-0.0	-0.0	-0.0	-0.0	-0.0	-0.0	-0.0
0.3930000000000001	-0.0	-0.0	-0.0	-3.9647719860076895	9.97471046447754	-804.2532348632812	-0.0	-0.0	-0.0	-0.0	-0.0	-0.0	-0.0	-0.0	-0.0	-0.0	-0.0	-0.0
0.3935000000000001	-0.0	-0.0	-0.0	-3.665596723556519	10.234078407287598	-804.5123901367188	-0.0	-0.0	-0.0	-0.0	-0.0	-0.0	-0.0	-0.0	-0.0	-0.0	-0.0	-0.0
0.39400000000000013	-0.0	-0.0	-0.0	-3.9983863830566406	10.201045989990234	-804.928955078125	-0.0	-0.0	-0.0	-0.0	-0.0	-0.0	-0.0	-0.0	-0.0	-0.0	-0.0	-0.0
0.39450000000000013	-0.0	-0.0	-0.0	-4.541637420654297	10.987314224243164	-801.46142578125	-0.0	-0.0	-0.0	-0.0	-0.0	-0.0	-0.0	-0.0	-0.0	-0.0	-0.0	-0.0
0.39500000000000013	-0.0	-0.0	-0.0	-4.6307902336120605	11.47337532043457	-800.5943603515625	-0.0	-0.0	-0.0	-0.0	-0.0	-0.0	-0.0	-0.0	-0.0	-0.0	-0.0	-0.0
0.39550000000000013	-0.0	-0.0	-0.0	-4.671873092651367	11.076842308044434	-794.1766357421875	-0.0	-0.0	-0.0	-0.0	-0.0	-0.0	-0.0	-0.0	-0.0	-0.0	-0.0	-0.0
0.39600000000000013	-0.0	-0.0	-0.0	-4.661789894104004	10.9381742477417	-791.123046875	-0.0	-0.0	-0.0	-0.0	-0.0	-0.0	-0.0	-0.0	-0.0	-0.0	-0.0	-0.0
0.39650000000000013	-0.0	-0.0	-0.0	-3.7468414306640634	10.007701873779297	-789.930908203125	-0.0	-0.0	-0.0	-0.0	-0.0	-0.0	-0.0	-0.0	-0.0	-0.0	-0.0	-0.0
0.39700000000000013	-0.0	-0.0	-0.0	-3.1307969093322754	9.29482650756836	-786.5984497070312	-0.0	-0.0	-0.0	-0.0	-0.0	-0.0	-0.0	-0.0	-0.0	-0.0	-0.0	-0.0
0.39750000000000013	-0.0	-0.0	-0.0	-2.2004430294036865	8.781525611877441	-783.6727294921875	-0.0	-0.0	-0.0	-0.0	-0.0	-0.0	-0.0	-0.0	-0.0	-0.0	-0.0	-0.0
0.39800000000000013	-0.0	-0.0	-0.0	-1.0498099327087402	7.814223766326904	-782.0421142578125	-0.0	-0.0	-0.0	-0.0	-0.0	-0.0	-0.0	-0.0	-0.0	-0.0	-0.0	-0.0
0.39850000000000013	-0.0	-0.0	-0.0	-0.5438888072967529	7.0240654945373535	-780.9375	-0.0	-0.0	-0.0	-0.0	-0.0	-0.0	-0.0	-0.0	-0.0	-0.0	-0.0	-0.0
0.39900000000000013	-0.0	-0.0	-0.0	-0.0718439072370529	5.445630073547363	-778.6492309570312	-0.0	-0.0	-0.0	-0.0	-0.0	-0.0	-0.0	-0.0	-0.0	-0.0	-0.0	-0.0
0.39950000000000013	-0.0	-0.0	-0.0	0.9358978271484376	4.127874374389648	-777.8062744140625	-0.0	-0.0	-0.0	-0.0	-0.0	-0.0	-0.0	-0.0	-0.0	-0.0	-0.0	-0.0
0.40000000000000013	-0.0	-0.0	-0.0	0.8479916453361511	2.5671520233154297	-778.8316040039062	-0.0	-0.0	-0.0	-0.0	-0.0	-0.0	-0.0	-0.0	-0.0	-0.0	-0.0	-0.0
0.40050000000000013	-0.0	-0.0	-0.0	0.945715308189392	0.231613278388977	-782.1878662109375	-0.0	-0.0	-0.0	-0.0	-0.0	-0.0	-0.0	-0.0	-0.0	-0.0	-0.0	-0.0
0.40100000000000013	-0.0	-0.0	-0.0	0.1160795539617538	-1.0874614715576172	-780.9872436523438	-0.0	-0.0	-0.0	-0.0	-0.0	-0.0	-0.0	-0.0	-0.0	-0.0	-0.0	-0.0
0.40150000000000013	-0.0	-0.0	-0.0	-0.03513965010643	-3.030433654785156	-786.8135375976562	-0.0	-0.0	-0.0	-0.0	-0.0	-0.0	-0.0	-0.0	-0.0	-0.0	-0.0	-0.0
0.40200000000000014	-0.0	-0.0	-0.0	0.2403639703989029	-4.598456859588623	-787.4833374023438	-0.0	-0.0	-0.0	-0.0	-0.0	-0.0	-0.0	-0.0	-0.0	-0.0	-0.0	-0.0
0.40250000000000014	-0.0	-0.0	-0.0	0.0640734434127807	-5.926011085510254	-789.1489868164062	-0.0	-0.0	-0.0	-0.0	-0.0	-0.0	-0.0	-0.0	-0.0	-0.0	-0.0	-0.0
0.40300000000000014	-0.0	-0.0	-0.0	-0.2492088824510574	-7.416229248046875	-790.1364135742188	-0.0	-0.0	-0.0	-0.0	-0.0	-0.0	-0.0	-0.0	-0.0	-0.0	-0.0	-0.0
0.40350000000000014	-0.0	-0.0	-0.0	-0.8828186392784119	-8.734779357910156	-790.9169311523438	-0.0	-0.0	-0.0	-0.0	-0.0	-0.0	-0.0	-0.0	-0.0	-0.0	-0.0	-0.0
0.40400000000000014	-0.0	-0.0	-0.0	-1.5165786743164062	-9.696529388427734	-791.6613159179688	-0.0	-0.0	-0.0	-0.0	-0.0	-0.0	-0.0	-0.0	-0.0	-0.0	-0.0	-0.0
0.40450000000000014	-0.0	-0.0	-0.0	-1.854564428329468	-10.564485549926758	-792.722412109375	-0.0	-0.0	-0.0	-0.0	-0.0	-0.0	-0.0	-0.0	-0.0	-0.0	-0.0	-0.0
0.40500000000000014	-0.0	-0.0	-0.0	-2.4086837768554688	-10.826532363891602	-792.2201538085938	-0.0	-0.0	-0.0	-0.0	-0.0	-0.0	-0.0	-0.0	-0.0	-0.0	-0.0	-0.0
0.40550000000000014	-0.0	-0.0	-0.0	-2.7941694259643555	-10.04311752319336	-790.7698974609375	-0.0	-0.0	-0.0	-0.0	-0.0	-0.0	-0.0	-0.0	-0.0	-0.0	-0.0	-0.0
0.40600000000000014	-0.0	-0.0	-0.0	-3.947096347808838	-9.626083374023438	-789.319091796875	-0.0	-0.0	-0.0	-0.0	-0.0	-0.0	-0.0	-0.0	-0.0	-0.0	-0.0	-0.0
0.40650000000000014	-0.0	-0.0	-0.0	-4.17562198638916	-10.437928199768066	-784.7191772460938	-0.0	-0.0	-0.0	-0.0	-0.0	-0.0	-0.0	-0.0	-0.0	-0.0	-0.0	-0.0
0.40700000000000014	-0.0	-0.0	-0.0	-4.084207057952881	-11.112112045288086	-783.3531494140625	-0.0	-0.0	-0.0	-0.0	-0.0	-0.0	-0.0	-0.0	-0.0	-0.0	-0.0	-0.0
0.40750000000000014	-0.0	-0.0	-0.0	-4.014472961425781	-12.973820686340332	-781.587158203125	-0.0	-0.0	-0.0	-0.0	-0.0	-0.0	-0.0	-0.0	-0.0	-0.0	-0.0	-0.0
0.40800000000000014	-0.0	-0.0	-0.0	-3.707016944885254	-14.934749603271484	-780.64501953125	-0.0	-0.0	-0.0	-0.0	-0.0	-0.0	-0.0	-0.0	-0.0	-0.0	-0.0	-0.0
0.40850000000000014	-0.0	-0.0	-0.0	-3.4891645908355717	-17.4993953704834	-784.5702514648438	-0.0	-0.0	-0.0	-0.0	-0.0	-0.0	-0.0	-0.0	-0.0	-0.0	-0.0	-0.0
0.40900000000000014	-0.0	-0.0	-0.0	-4.391335964202881	-18.99477767944336	-790.1066284179688	-0.0	-0.0	-0.0	-0.0	-0.0	-0.0	-0.0	-0.0	-0.0	-0.0	-0.0	-0.0
0.40950000000000014	-0.0	-0.0	-0.0	-2.9741456508636475	-19.45054244995117	-794.9682006835938	-0.0	-0.0	-0.0	-0.0	-0.0	-0.0	-0.0	-0.0	-0.0	-0.0	-0.0	-0.0
0.41000000000000014	-0.0	-0.0	-0.0	-2.7168900966644287	-20.420995712280277	-800.8916015625	-0.0	-0.0	-0.0	-0.0	-0.0	-0.0	-0.0	-0.0	-0.0	-0.0	-0.0	-0.0
0.41050000000000014	-0.0	-0.0	-0.0	-1.8734207153320312	-20.44145774841309	-805.2098388671875	-0.0	-0.0	-0.0	-0.0	-0.0	-0.0	-0.0	-0.0	-0.0	-0.0	-0.0	-0.0
0.41100000000000014	-0.0	-0.0	-0.0	-1.0294618606567385	-19.701000213623047	-809.6383666992188	-0.0	-0.0	-0.0	-0.0	-0.0	-0.0	-0.0	-0.0	-0.0	-0.0	-0.0	-0.0
0.41150000000000014	-0.0	-0.0	-0.0	-0.6554964184761047	-19.619020462036133	-809.13525390625	-0.0	-0.0	-0.0	-0.0	-0.0	-0.0	-0.0	-0.0	-0.0	-0.0	-0.0	-0.0
0.41200000000000014	-0.0	-0.0	-0.0	0.2676315307617187	-18.879283905029297	-809.841552734375	-0.0	-0.0	-0.0	-0.0	-0.0	-0.0	-0.0	-0.0	-0.0	-0.0	-0.0	-0.0
0.41250000000000014	-0.0	-0.0	-0.0	0.8869753479957581	-18.628253936767575	-808.3458251953125	-0.0	-0.0	-0.0	-0.0	-0.0	-0.0	-0.0	-0.0	-0.0	-0.0	-0.0	-0.0
0.41300000000000014	-0.0	-0.0	-0.0	0.8604921102523804	-17.06601905822754	-809.0518188476562	-0.0	-0.0	-0.0	-0.0	-0.0	-0.0	-0.0	-0.0	-0.0	-0.0	-0.0	-0.0
0.41350000000000015	-0.0	-0.0	-0.0	0.8559045791625977	-16.2896785736084	-808.1596069335938	-0.0	-0.0	-0.0	-0.0	-0.0	-0.0	-0.0	-0.0	-0.0	-0.0	-0.0	-0.0
0.41400000000000015	-0.0	-0.0	-0.0	0.9348225593566896	-14.414012908935549	-809.8988647460938	-0.0	-0.0	-0.0	-0.0	-0.0	-0.0	-0.0	-0.0	-0.0	-0.0	-0.0	-0.0
0.41450000000000015	-0.0	-0.0	-0.0	1.4951095581054688	-13.704631805419922	-808.1607055664062	-0.0	-0.0	-0.0	-0.0	-0.0	-0.0	-0.0	-0.0	-0.0	-0.0	-0.0	-0.0
0.41500000000000015	-0.0	-0.0	-0.0	1.4813331365585327	-13.080602645874023	-810.152099609375	-0.0	-0.0	-0.0	-0.0	-0.0	-0.0	-0.0	-0.0	-0.0	-0.0	-0.0	-0.0
0.41550000000000015	-0.0	-0.0	-0.0	1.773342490196228	-11.978314399719238	-809.2643432617188	-0.0	-0.0	-0.0	-0.0	-0.0	-0.0	-0.0	-0.0	-0.0	-0.0	-0.0	-0.0
0.41600000000000015	-0.0	-0.0	-0.0	1.9954264163970947	-10.01537036895752	-810.5479736328125	-0.0	-0.0	-0.0	-0.0	-0.0	-0.0	-0.0	-0.0	-0.0	-0.0	-0.0	-0.0
0.41650000000000015	-0.0	-0.0	-0.0	1.7500451803207395	-8.645648956298828	-810.1512451171875	-0.0	-0.0	-0.0	-0.0	-0.0	-0.0	-0.0	-0.0	-0.0	-0.0	-0.0	-0.0
0.41700000000000015	-0.0	-0.0	-0.0	1.3817238807678225	-7.119377136230469	-809.4884033203125	-0.0	-0.0	-0.0	-0.0	-0.0	-0.0	-0.0	-0.0	-0.0	-0.0	-0.0	-0.0
0.41750000000000015	-0.0	-0.0	-0.0	1.761951565742493	-5.414539813995361	-806.8392333984375	-0.0	-0.0	-0.0	-0.0	-0.0	-0.0	-0.0	-0.0	-0.0	-0.0	-0.0	-0.0
0.41800000000000015	-0.0	-0.0	-0.0	1.2377405166625977	-3.92218017578125	-807.7225341796875	-0.0	-0.0	-0.0	-0.0	-0.0	-0.0	-0.0	-0.0	-0.0	-0.0	-0.0	-0.0
0.41850000000000015	-0.0	-0.0	-0.0	0.8479412794113159	-2.941303253173828	-808.7821044921875	-0.0	-0.0	-0.0	-0.0	-0.0	-0.0	-0.0	-0.0	-0.0	-0.0	-0.0	-0.0
0.41900000000000015	-0.0	-0.0	-0.0	0.2336719036102295	-1.9070148468017576	-809.2643432617188	-0.0	-0.0	-0.0	-0.0	-0.0	-0.0	-0.0	-0.0	-0.0	-0.0	-0.0	-0.0
0.41950000000000015	-0.0	-0.0	-0.0	-0.6378132104873657	-0.7794051766395569	-810.02197265625	-0.0	-0.0	-0.0	-0.0	-0.0	-0.0	-0.0	-0.0	-0.0	-0.0	-0.0	-0.0
0.42000000000000015	-0.0	-0.0	-0.0	-1.9511725902557373	0.3107280731201172	-811.7792358398438	-0.0	-0.0	-0.0	-0.0	-0.0	-0.0	-0.0	-0.0	-0.0	-0.0	-0.0	-0.0
0.42050000000000015	-0.0	-0.0	-0.0	-2.3310093879699707	1.1556200981140137	-812.9288940429688	-0.0	-0.0	-0.0	-0.0	-0.0	-0.0	-0.0	-0.0	-0.0	-0.0	-0.0	-0.0
0.42100000000000015	-0.0	-0.0	-0.0	-2.811889886856079	2.0928072929382324	-816.0611572265625	-0.0	-0.0	-0.0	-0.0	-0.0	-0.0	-0.0	-0.0	-0.0	-0.0	-0.0	-0.0
